<svg xmlns="http://www.w3.org/2000/svg" viewBox="0 0 841.9 595.3">
<g transform="translate(0.000000,1063.000000) scale(0.100000,-0.100000)"
fill="#000000" stroke="none">
<path d="M1705 9451 l-770 -6 -78 -28 c-217 -76 -371 -196 -444 -345 l-38 -76
0 -2785 0 -2786 28 -90 c59 -189 153 -341 302 -490 l100 -100 910 -560 c500
-308 977 -602 1059 -654 279 -174 443 -248 661 -299 141 -33 351 -36 490 -9
128 26 285 80 406 140 58 29 593 353 1189 722 1072 662 1086 671 1175 760 175
174 295 401 325 610 6 45 10 1054 10 2775 0 2964 4 2765 -57 2870 -87 149
-304 294 -502 335 -54 12 -406 15 -2031 18 -1081 2 -2311 1 -2735 -2z m4756
-182 c96 -37 156 -75 228 -143 76 -73 123 -142 150 -224 21 -61 21 -63 21
-2745 0 -2623 0 -2686 -19 -2760 -52 -200 -179 -404 -315 -507 -61 -46 -2259
-1351 -2364 -1404 -173 -87 -397 -135 -546 -116 -149 18 -273 57 -416 130 -41
21 -579 337 -1195 703 -756 449 -1138 682 -1177 716 -117 105 -234 299 -281
466 l-22 80 -3 2635 c-2 1787 1 2661 8 2715 23 180 149 338 345 432 39 18 98
37 130 42 34 5 1243 8 2725 7 l2665 -1 66 -26z"/>
<path d="M975 9142 c-116 -40 -232 -139 -282 -240 l-28 -57 -3 -712 -3 -713
3036 0 3036 0 -3 708 -3 707 -33 67 c-41 83 -135 174 -229 220 l-68 33 -2685
2 c-2527 2 -2688 1 -2735 -15z m4885 -427 c52 -29 104 -87 97 -109 -5 -16
-131 -37 -136 -23 -9 25 -51 56 -89 66 -54 15 -132 -2 -166 -36 -33 -32 -50
-95 -42 -151 13 -94 54 -134 143 -139 83 -6 115 13 160 96 1 2 32 -2 68 -9 75
-14 79 -23 39 -82 -34 -49 -75 -73 -155 -94 -154 -40 -320 21 -381 140 -33 64
-30 166 7 235 36 66 103 113 190 135 11 3 63 4 115 3 84 -2 101 -6 150 -32z
m-4390 -40 l0 -65 -312 2 -313 3 -3 49 c-2 27 -1 55 2 62 4 12 61 14 316 14
l310 0 0 -65z m370 -95 c72 -88 132 -160 133 -160 1 0 2 71 2 157 l0 158 68 3
67 3 0 -256 0 -255 -72 0 -73 1 -130 160 -130 160 -3 -161 -2 -160 -65 0 -65
0 0 255 0 255 70 0 69 0 131 -160z m815 143 c61 -20 126 -84 143 -139 36 -120
0 -247 -85 -303 -62 -42 -91 -46 -293 -46 l-175 0 -3 253 -2 252 183 0 c145 0
194 -4 232 -17z m405 -140 c0 -195 8 -229 58 -250 52 -22 146 -14 175 15 21
21 22 32 25 207 l4 185 69 0 69 0 0 -185 c0 -134 -4 -195 -14 -218 -17 -41
-63 -81 -113 -98 -51 -18 -216 -18 -277 0 -60 18 -120 74 -129 121 -4 18 -7
111 -7 206 l0 174 70 0 70 0 0 -157z m752 147 c82 -23 130 -97 108 -165 -15
-47 -71 -93 -121 -101 -35 -6 -38 -8 -23 -17 36 -19 76 -57 139 -132 l64 -75
107 208 c59 114 116 225 128 247 l21 40 79 0 79 0 128 -240 c71 -132 129 -246
129 -252 0 -9 -21 -13 -72 -13 l-73 0 -30 58 -30 57 -130 0 -130 0 -29 -57
-28 -58 -156 0 -155 0 -101 105 -101 105 -52 0 -53 0 0 44 0 44 115 4 c101 3
117 5 136 25 30 29 20 67 -22 82 -18 6 -76 11 -130 11 l-99 0 0 45 0 45 133 0
c72 0 149 -5 169 -10z m1183 -151 l130 -160 3 160 2 161 65 0 65 0 0 -255 0
-255 -69 0 -70 0 -128 156 -128 157 -3 -157 -3 -157 -67 3 -67 3 -3 253 -2
252 72 0 73 0 130 -161z m1623 99 l-3 -63 -312 -3 -313 -2 0 65 0 65 315 0
316 0 -3 -62z m-5260 -195 l-3 -68 -244 -3 c-171 -2 -248 1 -257 9 -14 12 -20
110 -7 122 3 4 121 7 260 7 l254 0 -3 -67z m5150 0 l-3 -68 -255 0 -255 0 -3
68 -3 67 261 0 261 0 -3 -67z m-5040 -186 l3 -67 -313 2 -313 3 -3 54 c-2 29
-1 60 2 67 5 12 59 14 313 12 l308 -3 3 -68z m5147 3 l0 -65 -312 -3 -313 -2
0 63 c0 35 3 67 7 70 4 4 144 6 312 5 l306 -3 0 -65z m-5354 -336 c29 -15 63
-70 53 -86 -11 -17 -50 -7 -59 14 -6 13 -23 29 -39 37 -58 27 -140 -23 -106
-65 7 -8 38 -21 69 -30 92 -25 112 -36 132 -68 23 -38 23 -49 3 -91 -19 -41
-67 -65 -129 -65 -83 0 -145 47 -145 110 0 29 38 27 50 -4 13 -36 49 -56 99
-56 50 0 81 21 81 55 0 31 -13 39 -99 65 -41 12 -84 32 -97 45 -42 42 -26 112
31 143 30 17 122 14 156 -4z m349 -2 c46 -23 65 -75 47 -129 -16 -51 -61 -73
-149 -73 l-67 0 -3 -72 c-3 -67 -5 -73 -25 -76 l-23 -3 0 185 0 186 93 0 c68
0 101 -5 127 -18z m284 -34 c37 -83 126 -304 126 -312 0 -4 -12 -6 -26 -4 -29
3 -35 11 -58 71 l-15 37 -73 0 -73 0 -20 -53 c-17 -43 -24 -52 -45 -52 -31 0
-32 -5 37 175 30 80 59 155 64 168 6 15 17 22 34 22 22 0 30 -9 49 -52z m403
32 c32 -19 69 -75 55 -83 -31 -17 -42 -14 -59 13 -36 62 -135 60 -174 -4 -23
-38 -26 -134 -4 -176 39 -75 156 -70 186 8 6 15 17 22 34 22 31 0 33 -20 5
-65 -26 -42 -75 -65 -138 -65 -92 0 -151 64 -159 173 -9 117 59 197 166 197
38 0 66 -6 88 -20z m383 -5 l0 -25 -105 0 -105 0 0 -50 0 -49 98 -3 c92 -3 97
-4 100 -25 3 -23 1 -23 -97 -23 l-101 0 0 -60 0 -60 110 0 110 0 0 -25 0 -25
-135 0 -135 0 0 185 0 185 130 0 130 0 0 -25z m400 0 l0 -25 -105 0 -105 0 0
-50 0 -49 98 -3 c92 -3 97 -4 100 -25 3 -23 1 -23 -97 -23 l-101 0 0 -60 0
-60 110 0 110 0 0 -25 0 -25 -135 0 -135 0 0 185 0 185 130 0 130 0 0 -25z
m143 -21 c65 -95 56 -93 111 -19 36 47 56 65 73 65 13 0 23 -5 23 -10 0 -6
-25 -44 -55 -84 -30 -40 -55 -76 -55 -80 0 -4 27 -45 60 -91 33 -46 60 -88 60
-95 0 -6 -11 -10 -27 -8 -21 2 -40 20 -79 75 l-52 73 -53 -73 c-41 -55 -61
-73 -82 -75 -15 -2 -27 1 -27 6 0 5 29 48 65 96 39 51 63 91 59 99 -4 6 -29
42 -56 79 -26 37 -48 72 -48 78 0 5 11 10 25 10 19 0 34 -12 58 -46z m482 32
c41 -17 55 -42 55 -96 0 -79 -43 -110 -156 -110 l-63 0 -3 -72 c-3 -70 -4 -73
-28 -73 l-25 0 -3 170 c-1 93 0 175 2 182 7 18 176 18 221 -1z m165 -146 l0
-160 91 0 c88 0 90 -1 87 -22 -3 -22 -7 -23 -115 -26 l-113 -3 0 186 0 185 25
0 25 0 0 -160z m470 145 c78 -40 112 -154 75 -251 -43 -114 -203 -141 -284
-49 -57 65 -63 158 -15 241 13 23 38 48 56 57 42 21 130 22 168 2z m379 4 c50
-18 77 -91 51 -140 -6 -10 -27 -28 -48 -38 -20 -11 -31 -20 -25 -21 7 0 34
-31 59 -70 26 -38 50 -70 53 -70 3 0 36 78 72 173 64 168 67 172 95 172 28 0
31 -5 101 -175 40 -96 72 -179 73 -183 0 -14 -53 -3 -62 13 -4 8 -15 32 -23
53 l-15 37 -74 0 -73 0 -19 -52 -19 -53 -58 -2 -57 -2 -49 73 c-54 80 -63 86
-122 86 l-39 0 0 -80 c0 -79 0 -80 -25 -80 l-25 0 0 185 0 185 99 0 c54 0 112
-5 130 -11z m729 -16 c3 -22 0 -23 -57 -23 l-60 0 -3 -157 -3 -158 -25 0 -25
0 -3 158 -3 157 -54 0 c-52 0 -55 1 -55 25 l0 26 143 -3 c139 -3 142 -4 145
-25z m102 -158 l0 -185 -25 0 -25 0 0 185 0 185 25 0 25 0 0 -185z m320 170
c16 -8 41 -31 57 -51 22 -30 28 -49 31 -104 5 -79 -18 -134 -69 -171 -38 -27
-113 -36 -162 -20 -74 25 -125 119 -112 205 10 58 48 120 87 139 42 21 130 22
168 2z m287 -116 l88 -132 5 129 5 129 25 0 25 0 0 -180 0 -180 -28 0 c-24 0
-38 16 -117 135 l-89 134 -3 -134 c-3 -131 -4 -135 -25 -138 l-23 -3 0 185 0
186 25 0 c21 0 39 -21 112 -131z"/>
<path d="M2390 8484 l0 -167 98 7 c147 10 175 38 170 173 -3 70 -6 85 -27 107
-31 33 -78 46 -168 46 l-73 0 0 -166z"/>
<path d="M1440 7870 l0 -60 63 0 c75 0 107 18 107 59 0 45 -27 61 -103 61
l-67 0 0 -60z"/>
<path d="M3540 7870 l0 -60 65 0 c70 0 105 20 105 60 0 40 -35 60 -105 60
l-65 0 0 -60z"/>
<path d="M4215 7930 c-46 -18 -69 -58 -73 -123 -3 -53 0 -67 20 -97 59 -87
180 -64 208 40 31 115 -59 220 -155 180z"/>
<path d="M4540 7875 l0 -55 68 0 c81 0 112 17 112 60 0 39 -23 50 -109 50
l-71 0 0 -55z"/>
<path d="M5745 7931 c-44 -20 -69 -59 -73 -120 -7 -95 38 -154 117 -154 95 0
145 104 102 215 -18 48 -98 80 -146 59z"/>
<path d="M662 5378 l3 -1923 23 -70 c46 -137 144 -292 235 -370 42 -37 2223
-1337 2347 -1400 135 -68 309 -115 425 -115 107 0 294 49 408 106 97 49 2312
1366 2353 1400 91 73 209 261 250 399 18 57 19 162 21 1978 l3 1917 -3035 0
-3035 0 2 -1922z m3298 1299 l0 -273 67 -11 c70 -12 83 -11 83 12 0 8 4 25 9
39 l10 25 83 -22 c83 -22 83 -22 79 -52 -9 -66 -9 -66 58 -91 51 -19 66 -22
73 -12 4 7 65 113 134 236 69 122 130 222 135 222 9 0 429 -236 441 -248 4 -4
-53 -115 -127 -245 -74 -131 -135 -241 -135 -245 0 -4 23 -27 51 -51 l51 -44
31 31 30 31 64 -56 c35 -30 63 -59 63 -64 0 -5 -13 -23 -29 -42 l-30 -33 50
-62 50 -61 157 91 c86 50 194 113 240 139 45 27 88 49 95 49 16 -1 260 -427
254 -443 -3 -6 -113 -75 -246 -151 -161 -93 -241 -144 -240 -155 0 -9 9 -38
18 -66 19 -51 22 -53 78 -41 31 7 31 7 48 -51 10 -32 18 -71 19 -87 1 -26 -4
-31 -36 -40 -41 -12 -42 -13 -33 -81 12 -94 -21 -85 311 -85 l294 0 -2 -262
-3 -263 -296 2 -297 3 -5 -23 c-3 -12 -9 -43 -12 -68 l-7 -47 39 -9 c34 -8 38
-12 37 -39 -1 -17 -9 -56 -18 -88 -17 -57 -17 -57 -49 -50 -18 4 -38 7 -45 8
-14 1 -55 -92 -48 -110 2 -6 117 -75 256 -154 161 -92 249 -147 246 -156 -4
-10 -244 -434 -251 -441 -1 -2 -115 62 -254 142 -139 80 -256 145 -261 145 -4
0 -29 -25 -54 -57 l-47 -56 33 -34 32 -33 -62 -62 -62 -62 -32 31 -33 32 -52
-42 c-29 -23 -52 -46 -52 -51 -1 -5 62 -119 139 -254 78 -135 139 -250 137
-256 -8 -19 -438 -259 -447 -250 -5 5 -70 117 -146 249 -75 132 -138 241 -139
243 -1 2 -107 -35 -122 -43 -1 0 3 -20 9 -43 6 -24 8 -45 5 -48 -10 -10 -158
-45 -167 -39 -4 3 -11 22 -15 43 l-6 39 -75 -15 -74 -15 0 -288 0 -289 -260 0
-260 0 0 289 0 289 -57 8 c-32 4 -62 8 -67 9 -5 0 -14 -18 -21 -40 -13 -45
-12 -45 -115 -20 -56 14 -70 21 -66 34 21 75 22 74 -50 99 -36 13 -67 22 -69
20 -1 -2 -64 -111 -139 -243 -75 -132 -141 -241 -146 -243 -9 -3 -414 221
-438 243 -10 9 16 62 129 260 l142 249 -29 23 c-16 14 -44 36 -62 50 l-33 26
-32 -31 -32 -32 -62 62 -63 62 31 32 c35 36 34 38 -22 103 l-37 42 -218 -127
c-121 -69 -233 -135 -250 -145 l-32 -19 -131 226 c-72 125 -130 228 -129 229
2 1 111 64 243 140 132 76 243 141 248 145 4 3 -5 40 -20 81 -26 71 -29 75
-53 68 -61 -17 -66 -14 -84 59 -9 37 -19 74 -22 83 -3 13 6 19 42 28 40 10 45
15 41 34 -3 12 -9 43 -12 70 l-7 47 -289 0 -289 0 2 263 3 262 285 0 285 0 11
63 c12 69 11 71 -51 84 -25 5 -25 38 0 121 17 58 17 58 48 51 56 -12 59 -10
78 41 9 28 18 57 18 66 1 11 -77 61 -239 154 -132 76 -240 140 -240 144 0 14
246 434 257 438 7 3 118 -56 247 -130 l235 -136 50 62 51 61 -30 31 c-17 17
-30 35 -30 40 0 13 102 115 115 115 7 0 22 -11 35 -25 13 -14 28 -25 34 -25 6
1 35 23 65 50 l55 48 -133 232 c-73 128 -130 237 -128 244 4 10 427 256 440
256 3 0 65 -103 137 -230 72 -126 136 -230 141 -230 6 0 39 10 75 23 70 24 66
17 48 91 -5 22 -1 25 75 45 82 22 101 21 101 -4 0 -8 4 -25 9 -38 10 -26 9
-26 129 -1 l22 4 0 270 0 270 260 0 260 0 0 -273z"/>
<path d="M3382 6240 c-44 -10 -45 -12 -34 -54 6 -20 7 -38 3 -40 -8 -6 -152
-46 -162 -46 -4 0 -10 18 -14 40 -8 45 -16 48 -75 24 -49 -20 -51 -11 36 -161
35 -62 64 -116 64 -120 -1 -9 -417 -247 -439 -251 -11 -2 -39 38 -88 124 l-71
126 -44 -40 -43 -41 32 -33 33 -34 -58 -57 c-32 -31 -62 -57 -67 -57 -5 0 -22
12 -37 27 l-29 27 -24 -29 c-53 -63 -56 -57 75 -132 66 -37 120 -73 120 -80 0
-11 -232 -419 -249 -436 -5 -5 -54 17 -123 57 -63 36 -118 66 -121 66 -3 0
-12 -20 -20 -45 l-16 -45 42 -12 c23 -6 43 -12 45 -13 3 -2 -38 -156 -44 -167
-2 -3 -20 -2 -40 4 -20 5 -38 7 -41 4 -3 -3 -9 -23 -13 -46 l-7 -40 139 0 138
0 -2 -257 -3 -258 -132 -3 c-147 -3 -141 0 -127 -71 6 -30 9 -32 38 -25 58 13
58 12 77 -61 26 -100 26 -102 -22 -110 -27 -5 -39 -11 -35 -20 2 -7 10 -31 17
-54 7 -23 16 -41 21 -41 5 0 55 27 111 60 57 33 108 60 113 60 5 0 67 -100
138 -222 101 -174 126 -224 115 -231 -8 -4 -60 -35 -117 -68 l-103 -60 33 -39
33 -39 33 32 32 31 62 -62 62 -62 -31 -32 -32 -33 44 -38 44 -37 42 72 c23 40
53 92 66 116 14 23 27 42 31 42 13 0 452 -253 448 -259 -2 -3 -31 -54 -65
-113 -33 -59 -61 -109 -61 -112 0 -6 67 -36 81 -36 4 0 13 18 19 40 6 22 14
40 18 40 33 -2 157 -39 160 -48 2 -6 -1 -26 -6 -45 -9 -34 -9 -35 20 -41 71
-14 68 -20 68 129 l0 135 260 0 260 0 0 -136 0 -136 38 6 c72 13 71 12 60 57
-6 22 -8 42 -5 45 5 5 144 43 159 44 4 0 12 -18 18 -41 8 -30 15 -39 27 -35 8
3 26 9 39 12 13 3 24 10 24 14 0 4 -27 55 -60 113 -33 57 -60 108 -60 113 1
10 415 248 439 252 11 1 35 -32 74 -103 32 -58 62 -105 65 -105 4 1 22 14 41
30 l34 29 -28 37 -28 36 61 61 61 61 31 -29 31 -30 36 39 35 38 -38 23 c-22
12 -72 41 -112 64 l-73 42 19 32 c11 18 66 113 122 212 57 99 108 186 115 193
9 10 32 1 116 -47 l104 -60 12 27 c20 46 16 59 -22 66 -19 4 -36 10 -39 14 -3
5 6 44 18 88 25 83 25 83 84 70 25 -6 32 -4 32 7 0 8 3 29 6 46 l7 31 -127 0
-126 0 0 80 0 80 -550 0 -550 0 0 -65 c0 -60 -2 -65 -27 -79 -27 -15 -25 -15
52 -16 l80 0 83 -55 82 -55 0 -135 0 -135 -605 0 -606 0 3 133 3 132 84 58 85
57 82 0 82 0 73 -92 c39 -51 76 -97 80 -102 5 -6 9 21 9 60 l0 71 -102 43
c-57 24 -106 49 -110 54 -4 6 -8 37 -8 69 l0 57 -55 0 -55 0 0 130 0 130 55 0
55 0 0 58 c0 31 4 62 8 68 4 5 52 29 107 51 l100 41 3 74 c2 42 -1 69 -6 63
-4 -6 -41 -52 -81 -102 l-73 -93 -84 0 c-83 0 -87 1 -147 41 -113 76 -107 64
-107 211 l0 128 605 0 605 0 0 -135 0 -135 -82 -55 -83 -55 -80 0 c-77 -1 -79
-1 -52 -16 25 -14 27 -19 27 -79 l0 -65 549 0 550 0 3 48 3 47 129 3 128 3 -6
37 c-13 68 -15 73 -42 66 -55 -14 -57 -13 -80 71 -23 81 -23 95 1 95 8 0 25 4
39 10 25 9 25 9 10 55 -9 25 -18 45 -20 45 -3 0 -51 -27 -107 -60 -57 -33
-108 -60 -114 -60 -8 0 -263 427 -263 442 0 3 44 31 98 61 146 83 139 75 100
125 l-32 42 -31 -30 -31 -30 -62 56 c-34 30 -62 61 -62 67 0 6 12 24 27 39
l27 28 -37 37 c-20 20 -38 35 -40 33 -3 -3 -35 -58 -72 -122 -36 -65 -70 -118
-74 -118 -15 0 -451 252 -447 258 2 4 33 59 70 123 36 64 66 120 66 125 0 6
-20 17 -45 26 l-45 17 -10 -40 c-6 -21 -16 -39 -23 -39 -7 0 -45 7 -85 17
l-73 17 6 48 c4 26 3 48 -2 48 -4 1 -27 5 -50 9 l-43 8 0 -153 0 -154 -260 0
-260 0 0 155 c0 118 -3 155 -12 154 -7 -1 -28 -5 -46 -9z"/>
</g>
</svg>
